<?xml version="1.0" standalone="no"?>
<!DOCTYPE svg PUBLIC "-//W3C//DTD SVG 20010904//EN"
 "http://www.w3.org/TR/2001/REC-SVG-20010904/DTD/svg10.dtd">
<svg version="1.0" xmlns="http://www.w3.org/2000/svg"
 width="512.000000pt" height="512.000000pt" viewBox="0 0 512.000000 512.000000"
 preserveAspectRatio="xMidYMid meet">

<g transform="translate(0.000000,512.000000) scale(0.100000,-0.100000)"
fill="#000000" stroke="none">
<path d="M1050 4778 c-33 -17 -51 -35 -68 -68 -22 -44 -23 -50 -20 -327 3
-266 4 -283 24 -309 39 -53 71 -69 134 -69 63 0 95 16 134 69 20 26 21 43 24
309 3 277 2 283 -20 327 -25 48 -88 90 -138 90 -14 0 -46 -10 -70 -22z"/>
<path d="M2010 4778 c-33 -17 -51 -35 -68 -68 -22 -44 -23 -50 -20 -327 3
-266 4 -283 24 -309 39 -53 71 -69 134 -69 63 0 95 16 134 69 20 26 21 43 24
309 3 277 2 283 -20 327 -25 48 -88 90 -138 90 -14 0 -46 -10 -70 -22z"/>
<path d="M2970 4778 c-33 -17 -51 -35 -68 -68 -22 -44 -23 -50 -20 -327 3
-266 4 -283 24 -309 39 -53 71 -69 134 -69 63 0 95 16 134 69 20 26 21 43 24
309 3 277 2 283 -20 327 -25 48 -88 90 -138 90 -14 0 -46 -10 -70 -22z"/>
<path d="M3930 4778 c-33 -17 -51 -35 -68 -68 -22 -44 -23 -50 -20 -327 3
-266 4 -283 24 -309 39 -53 71 -69 134 -69 63 0 95 16 134 69 20 26 21 43 24
309 3 277 2 283 -20 327 -25 48 -88 90 -138 90 -14 0 -46 -10 -70 -22z"/>
<path d="M2428 3190 c-260 -41 -487 -177 -638 -380 -66 -89 -134 -234 -162
-346 -33 -133 -31 -333 5 -466 42 -158 118 -294 229 -413 239 -256 597 -359
939 -271 157 40 294 115 414 228 130 121 233 297 277 474 31 124 31 321 0 448
-54 216 -186 415 -362 546 -88 65 -234 134 -340 160 -97 23 -277 33 -362 20z
m352 -180 c218 -63 396 -212 495 -415 66 -135 79 -196 80 -355 0 -111 -4 -149
-23 -213 -78 -272 -286 -481 -558 -559 -104 -30 -313 -32 -414 -5 -276 76
-493 290 -572 563 -30 103 -32 313 -5 414 66 243 240 443 470 538 115 48 195
62 332 58 83 -3 143 -11 195 -26z"/>
<path d="M2524 2788 c-38 -18 -44 -51 -44 -232 l0 -173 -34 -36 c-58 -61 -59
-152 -2 -211 63 -68 164 -70 228 -5 l30 29 173 0 c190 0 217 6 236 51 15 37
-2 82 -37 98 -16 7 -91 11 -199 11 l-173 0 -31 31 -31 31 0 173 c0 186 -6 215
-47 234 -29 13 -41 13 -69 -1z"/>
</g>
</svg>
